HIERARCHY
ROOT Haolin_V1:Solving:Hips
{
	OFFSET 0.000000 0.000000 0.000000
	CHANNELS 6 Xposition Yposition Zposition Xrotation Yrotation Zrotation
	JOINT Haolin_V1:Solving:Spine
	{
		OFFSET 0.000000 -12.731938 2.520517
		CHANNELS 6 Xposition Yposition Zposition Xrotation Yrotation Zrotation
		JOINT Haolin_V1:Solving:Spine1
		{
			OFFSET 0.000000 -8.486854 1.496462
			CHANNELS 6 Xposition Yposition Zposition Xrotation Yrotation Zrotation
			JOINT Haolin_V1:Solving:Spine2
			{
				OFFSET 0.000000 -8.584984 0.751091
				CHANNELS 6 Xposition Yposition Zposition Xrotation Yrotation Zrotation
				JOINT Haolin_V1:Solving:Spine3
				{
					OFFSET 0.000000 -8.617775 0.000000
					CHANNELS 6 Xposition Yposition Zposition Xrotation Yrotation Zrotation
					JOINT Haolin_V1:Solving:Neck
					{
						OFFSET 0.000000 -11.080002 -1.107998
						CHANNELS 6 Xposition Yposition Zposition Xrotation Yrotation Zrotation
						JOINT Haolin_V1:Solving:Neck1
						{
							OFFSET 0.000000 -8.314011 -0.727381
							CHANNELS 6 Xposition Yposition Zposition Xrotation Yrotation Zrotation
							JOINT Haolin_V1:Solving:Head
							{
								OFFSET 0.000000 -8.218975 -1.449226
								CHANNELS 6 Xposition Yposition Zposition Xrotation Yrotation Zrotation
								JOINT Haolin_V1:Solving:HeadEnd
								{
									OFFSET 0.000000 -9.728081 0.000002
									CHANNELS 6 Xposition Yposition Zposition Xrotation Yrotation Zrotation
									End Site
									{
										OFFSET 0.000000 -9.728081 0.000002
									}
								}
							}
						}
					}
					JOINT Haolin_V1:Solving:RightShoulder
					{
						OFFSET 0.000000 -7.914288 -5.288076
						CHANNELS 6 Xposition Yposition Zposition Xrotation Yrotation Zrotation
						JOINT Haolin_V1:Solving:RightArm
						{
							OFFSET -20.201836 -0.000008 0.000000
							CHANNELS 6 Xposition Yposition Zposition Xrotation Yrotation Zrotation
							JOINT Haolin_V1:Solving:RightForeArm
							{
								OFFSET -29.446457 -0.000008 0.000000
								CHANNELS 6 Xposition Yposition Zposition Xrotation Yrotation Zrotation
								JOINT Haolin_V1:Solving:RightHand
								{
									OFFSET -23.111885 -0.000008 0.000000
									CHANNELS 6 Xposition Yposition Zposition Xrotation Yrotation Zrotation
									JOINT Haolin_V1:Solving:RightHandThumb1
									{
										OFFSET -3.824379 2.925484 -2.843767
										CHANNELS 6 Xposition Yposition Zposition Xrotation Yrotation Zrotation
										End Site
										{
											OFFSET -5.557076 0.000000 -5.608460
										}
									}
									JOINT Haolin_V1:Solving:RightHandMiddle1
									{
										OFFSET -10.198334 -0.000004 0.065374
										CHANNELS 6 Xposition Yposition Zposition Xrotation Yrotation Zrotation
										End Site
										{
											OFFSET -7.895309 -0.000004 0.000000
										}
									}
								}
							}
						}
					}
					JOINT Haolin_V1:Solving:LeftShoulder
					{
						OFFSET 0.000000 -7.914288 -5.288076
						CHANNELS 6 Xposition Yposition Zposition Xrotation Yrotation Zrotation
						JOINT Haolin_V1:Solving:LeftArm
						{
							OFFSET 20.201836 -0.000008 0.000000
							CHANNELS 6 Xposition Yposition Zposition Xrotation Yrotation Zrotation
							JOINT Haolin_V1:Solving:LeftForeArm
							{
								OFFSET 29.446457 -0.000008 0.000000
								CHANNELS 6 Xposition Yposition Zposition Xrotation Yrotation Zrotation
								JOINT Haolin_V1:Solving:LeftHand
								{
									OFFSET 23.111885 -0.000008 0.000000
									CHANNELS 6 Xposition Yposition Zposition Xrotation Yrotation Zrotation
									JOINT Haolin_V1:Solving:LeftHandThumb1
									{
										OFFSET 3.824379 2.925484 -2.843767
										CHANNELS 6 Xposition Yposition Zposition Xrotation Yrotation Zrotation
										End Site
										{
											OFFSET 5.557076 0.000000 -5.608460
										}
									}
									JOINT Haolin_V1:Solving:LeftHandMiddle1
									{
										OFFSET 10.198334 -0.000004 0.065374
										CHANNELS 6 Xposition Yposition Zposition Xrotation Yrotation Zrotation
										End Site
										{
											OFFSET 7.895309 -0.000004 0.000000
										}
									}
								}
							}
						}
					}
				}
			}
		}
	}
	JOINT Haolin_V1:Solving:RightUpLeg
	{
		OFFSET -10.695510 0.000000 0.000000
		CHANNELS 6 Xposition Yposition Zposition Xrotation Yrotation Zrotation
		JOINT Haolin_V1:Solving:RightLeg
		{
			OFFSET 0.000000 46.236332 -0.000006
			CHANNELS 6 Xposition Yposition Zposition Xrotation Yrotation Zrotation
			JOINT Haolin_V1:Solving:RightFoot
			{
				OFFSET 0.000000 41.248135 -0.000006
				CHANNELS 6 Xposition Yposition Zposition Xrotation Yrotation Zrotation
				JOINT Haolin_V1:Solving:RightForeFoot
				{
					OFFSET 0.000000 3.207336 -0.000000
					CHANNELS 6 Xposition Yposition Zposition Xrotation Yrotation Zrotation
					JOINT Haolin_V1:Solving:RightToeBase
					{
						OFFSET 0.000000 0.000000 -12.560947
						CHANNELS 6 Xposition Yposition Zposition Xrotation Yrotation Zrotation
						JOINT Haolin_V1:Solving:RightToeBaseEnd
						{
							OFFSET 0.000000 0.000000 -3.517768
							CHANNELS 6 Xposition Yposition Zposition Xrotation Yrotation Zrotation
							End Site
							{
								OFFSET 0.000000 -3.517769 0.000004
							}
						}
					}
				}
			}
		}
	}
	JOINT Haolin_V1:Solving:LeftUpLeg
	{
		OFFSET 10.695510 0.000000 0.000000
		CHANNELS 6 Xposition Yposition Zposition Xrotation Yrotation Zrotation
		JOINT Haolin_V1:Solving:LeftLeg
		{
			OFFSET 0.000000 46.236332 -0.000006
			CHANNELS 6 Xposition Yposition Zposition Xrotation Yrotation Zrotation
			JOINT Haolin_V1:Solving:LeftFoot
			{
				OFFSET 0.000000 41.248135 -0.000006
				CHANNELS 6 Xposition Yposition Zposition Xrotation Yrotation Zrotation
				JOINT Haolin_V1:Solving:LeftForeFoot
				{
					OFFSET 0.000000 3.207336 -0.000000
					CHANNELS 6 Xposition Yposition Zposition Xrotation Yrotation Zrotation
					JOINT Haolin_V1:Solving:LeftToeBase
					{
						OFFSET 0.000000 0.000000 -12.560947
						CHANNELS 6 Xposition Yposition Zposition Xrotation Yrotation Zrotation
						JOINT Haolin_V1:Solving:LeftToeBaseEnd
						{
							OFFSET 0.000000 0.000000 -3.901837
							CHANNELS 6 Xposition Yposition Zposition Xrotation Yrotation Zrotation
							End Site
							{
								OFFSET 0.000000 -3.901840 0.000004
							}
						}
					}
				}
			}
		}
	}
}
MOTION
Frames: 4
Frame Time: 0.041667
-40.481373 -149.466248 -75.632988 119.631938 -2.522189 -6.463560 0.000004 -12.731923 2.520495 18.761380 -0.521422 -1.890387 0.000005 -8.486841 1.496526 23.093846 0.056010 -2.248334 0.000001 -8.584975 0.751099 -3.964022 4.363675 10.730114 0.000006 -8.617754 0.000021 -9.198569 0.694826 0.013732 -0.000007 -11.080018 -1.107993 -20.195838 -1.579524 2.412656 -0.000001 -8.314020 -0.727360 8.151114 -5.766834 -2.039698 0.000004 -8.218961 -1.449189 -1.218847 -0.389352 -0.153095 -0.000002 -9.728096 -0.000035 -0.000006 0.000000 -0.000001 0.000009 -7.914307 -5.288090 0.000009 2.262437 18.207430 -20.201832 0.000010 -0.000012 -68.370084 -16.407228 -95.094026 -29.446451 0.000007 -0.000009 -22.060208 -10.897534 -4.381061 -23.111906 -0.000014 0.000013 0.490839 -4.679621 5.994524 -3.824381 2.925479 -2.843770 0.000003 0.000007 -0.000003 -10.198327 -0.000013 0.065382 -0.000001 0.000006 -0.000001 0.000010 -7.914303 -5.288090 0.000011 3.120210 -22.508692 20.201828 -0.000011 -0.000017 -62.419692 14.204999 85.587673 29.446453 -0.000010 0.000005 -35.563634 2.854308 2.039019 23.111887 -0.000019 -0.000002 0.012796 7.876568 -0.093328 3.824396 2.925479 -2.843743 0.000002 0.000007 0.000003 10.198326 -0.000011 0.065374 0.000000 0.000003 -0.000000 -10.695507 0.000017 -0.000011 -82.688640 8.092069 20.602907 -0.000003 46.236336 -0.000016 73.834242 0.000004 0.000002 -0.000001 41.248138 0.000003 -26.345342 4.556978 -6.539500 -0.000012 3.207344 0.000041 -0.000000 -0.000003 -0.000001 0.000014 -0.000004 -12.560942 16.055130 -0.000006 -0.000000 -0.000014 0.000000 -3.517767 -0.000001 0.000002 -0.000002 10.695511 -0.000005 -0.000021 -65.773677 3.047615 -20.243123 0.000004 46.236320 -0.000043 41.809695 -0.000002 0.000002 -0.000005 41.248142 -0.000020 5.192546 -22.763940 2.126125 -0.000000 3.207336 -0.000029 -0.000004 0.000003 0.000000 0.000003 -0.000001 -12.560936 -1.288926 0.000000 0.000004 0.000004 0.000001 -3.901812 0.000002 0.000005 0.000000 
-40.895496 -149.491623 -75.731956 119.535769 -2.663540 -6.493515 -0.000000 -12.731952 2.520511 18.862378 -0.432889 -1.872821 -0.000000 -8.486873 1.496449 23.014129 0.066072 -2.160615 -0.000001 -8.584973 0.751104 -3.859393 4.320416 10.528403 -0.000006 -8.617785 0.000018 -9.197477 0.654522 -0.037109 0.000009 -11.080016 -1.108007 -20.194209 -1.566108 2.635592 0.000003 -8.313991 -0.727336 8.034345 -5.731404 -2.210309 -0.000001 -8.218958 -1.449211 -1.173550 -0.384624 -0.171349 0.000003 -9.728058 0.000006 -0.000006 0.000000 -0.000000 0.000007 -7.914307 -5.288094 0.000006 2.283842 18.251481 -20.201830 0.000017 -0.000004 -68.423251 -16.288685 -95.171289 -29.446445 -0.000000 0.000003 -22.033321 -10.898663 -4.375623 -23.111887 -0.000020 0.000013 0.491633 -4.684145 5.998417 -3.824373 2.925475 -2.843769 0.000005 -0.000003 -0.000002 -10.198318 -0.000011 0.065366 -0.000001 -0.000002 -0.000000 0.000008 -7.914310 -5.288098 0.000011 3.144877 -22.451660 20.201818 -0.000022 0.000014 -62.574293 13.956447 85.503839 29.446444 -0.000010 -0.000002 -35.362813 2.668449 1.892371 23.111895 -0.000018 -0.000003 -0.006986 7.993381 0.050282 3.824390 2.925482 -2.843776 0.000005 0.000005 0.000005 10.198335 -0.000002 0.065355 0.000000 -0.000003 0.000001 -10.695511 -0.000012 -0.000013 -82.503385 8.265617 20.464464 0.000012 46.236317 -0.000017 73.744787 -0.000001 0.000003 0.000029 41.248150 -0.000014 -26.452180 4.681505 -6.365722 -0.000016 3.207336 -0.000010 0.000001 0.000000 0.000001 0.000009 -0.000001 -12.560962 15.954069 -0.000000 -0.000001 0.000018 -0.000001 -3.517790 -0.000001 0.000004 0.000001 10.695505 0.000009 0.000005 -65.534600 3.349898 -20.158441 -0.000011 46.236366 -0.000042 41.299630 0.000001 0.000003 0.000003 41.248123 -0.000028 6.685324 -22.821486 1.907188 -0.000012 3.207336 0.000016 0.000001 -0.000001 -0.000001 0.000003 -0.000007 -12.560947 -1.779923 -0.000003 -0.000007 0.000006 0.000000 -3.901828 -0.000001 0.000005 0.000003 
-41.315628 -149.460495 -75.813416 119.355780 -2.644505 -6.493716 -0.000001 -12.731953 2.520519 19.183688 -0.490822 -1.757753 0.000004 -8.486854 1.496468 22.607294 0.078391 -1.973880 0.000004 -8.584993 0.751097 -3.601330 4.218013 10.030123 -0.000005 -8.617748 0.000020 -9.154430 0.615049 0.028953 -0.000006 -11.080005 -1.107992 -18.496166 -1.228420 2.040543 0.000006 -8.314012 -0.727396 5.605568 -5.741290 -1.027642 0.000007 -8.218976 -1.449228 -1.124829 -0.372434 -0.142006 -0.000000 -9.728081 -0.000015 -0.000006 0.000001 -0.000000 0.000002 -7.914291 -5.288063 0.000010 2.302457 18.163621 -20.201813 0.000000 -0.000003 -68.458084 -16.299869 -95.197872 -29.446461 -0.000005 0.000010 -21.960909 -10.901025 -4.360724 -23.111906 0.000001 0.000021 0.487584 -4.618427 6.033227 -3.824380 2.925469 -2.843758 -0.000001 0.000002 -0.000002 -10.198333 -0.000014 0.065366 -0.000002 -0.000004 0.000001 0.000004 -7.914307 -5.288071 0.000014 3.220919 -22.210761 20.201830 0.000002 0.000014 -62.723608 13.463507 85.415340 29.446465 -0.000009 -0.000002 -34.779542 2.539456 1.762473 23.111893 -0.000012 -0.000002 0.041068 7.969445 -0.296157 3.824374 2.925478 -2.843755 0.000000 -0.000007 0.000013 10.198329 -0.000009 0.065376 0.000000 0.000002 0.000003 -10.695503 0.000012 0.000056 -82.171028 8.456783 20.152700 -0.000007 46.236347 -0.000008 73.648912 0.000001 0.000003 -0.000020 41.248158 -0.000014 -26.599087 4.799153 -6.095318 -0.000012 3.207329 -0.000025 -0.000000 0.000002 -0.000002 0.000015 0.000001 -12.560977 15.927223 -0.000001 -0.000001 0.000017 0.000015 -3.517771 -0.000002 0.000005 -0.000000 10.695516 -0.000003 0.000037 -65.383891 3.510691 -20.280146 0.000002 46.236347 -0.000030 41.138769 0.000002 0.000001 0.000002 41.248154 -0.000016 8.071369 -22.864741 1.387864 0.000009 3.207337 0.000002 -0.000002 -0.000001 0.000004 0.000013 -0.000015 -12.560973 -1.946889 0.000002 0.000004 -0.000009 -0.000007 -3.901853 0.000000 -0.000001 0.000001 
-41.736336 -149.460785 -75.887497 119.240896 -2.661214 -6.452056 0.000006 -12.731939 2.520517 19.259819 -0.552954 -1.730091 0.000005 -8.486841 1.496419 22.612704 0.080411 -1.962151 -0.000001 -8.584969 0.751077 -3.592661 4.185036 9.898440 -0.000000 -8.617763 0.000002 -9.145569 0.610488 0.083675 -0.000005 -11.080000 -1.107995 -18.202220 -0.721816 0.922494 -0.000005 -8.314006 -0.727374 5.198136 -5.608928 0.414266 0.000002 -8.218984 -1.449249 -1.153095 -0.349678 -0.093396 0.000006 -9.728058 0.000018 -0.000003 0.000001 -0.000001 -0.000001 -7.914288 -5.288084 0.000008 2.282762 18.102515 -20.201830 0.000017 -0.000028 -68.449472 -16.225287 -95.282573 -29.446451 0.000008 -0.000001 -21.943610 -10.922564 -4.365414 -23.111902 -0.000012 -0.000013 0.493385 -4.618742 6.104076 -3.824418 2.925487 -2.843748 0.000002 0.000002 -0.000001 -10.198350 -0.000003 0.065381 0.000000 -0.000000 -0.000001 0.000001 -7.914284 -5.288084 0.000018 3.189247 -22.247792 20.201822 0.000012 0.000001 -62.821703 13.248371 85.398948 29.446451 -0.000018 -0.000006 -34.541008 2.431050 1.672384 23.111906 -0.000003 -0.000010 0.055474 8.184815 -0.389604 3.824362 2.925485 -2.843741 0.000004 0.000000 -0.000002 10.198312 -0.000003 0.065364 0.000001 -0.000004 0.000001 -10.695506 -0.000003 -0.000033 -81.916911 8.642722 19.839953 -0.000002 46.236343 -0.000009 73.565194 0.000005 0.000002 -0.000021 41.248161 0.000026 -26.673379 4.944231 -5.917760 -0.000005 3.207329 0.000009 0.000001 -0.000002 0.000000 -0.000000 -0.000001 -12.560948 15.842875 -0.000002 0.000001 -0.000012 0.000007 -3.517779 -0.000001 0.000001 -0.000001 10.695518 -0.000010 -0.000004 -65.435077 3.730038 -20.378943 -0.000013 46.236359 -0.000017 41.149947 0.000000 0.000003 0.000003 41.248146 -0.000008 9.503271 -22.853154 0.571888 -0.000007 3.207336 0.000012 0.000000 -0.000005 -0.000002 -0.000001 -0.000005 -12.560921 -2.021848 -0.000003 -0.000003 -0.000006 -0.000000 -3.901845 0.000001 -0.000008 -0.000002 
